<svg width="94" height="36" viewBox="0 0 94 36" fill="none" xmlns="http://www.w3.org/2000/svg">
<path d="M8.36 22.48C7.50667 22.48 6.64 22.4533 5.76 22.4C4.88 22.3733 4.01333 22.3067 3.16 22.2C1.26667 22.04 0.32 21.4267 0.32 20.36C0.32 19.8267 0.533333 19.1867 0.96 18.44C1.97333 16.6 3.01333 14.7733 4.08 12.96C5.14667 11.12 6.2 9.28 7.24 7.44C7.56 6.85333 7.97333 6.12 8.48 5.24C8.98667 4.36 9.49333 3.52 10 2.72C10.24 2.34667 10.5867 1.97333 11.04 1.6C11.4933 1.2 11.96 0.946665 12.44 0.839998C11.88 0.866666 11.16 0.906666 10.28 0.959999C9.42667 1.01333 8.54667 1.12 7.64 1.28C6.76 1.41333 5.96 1.64 5.24 1.96C4.54667 2.25333 4.05333 2.66667 3.76 3.2C3.65333 3.44 3.56 3.68 3.48 3.92C3.4 4.16 3.36 4.4 3.36 4.64C3.36 5.25333 3.57333 5.69333 4 5.96C4.02667 5.96 4.04 5.98667 4.04 6.04C4.04 6.09333 3.98667 6.14667 3.88 6.2C3.8 6.25333 3.72 6.26667 3.64 6.24C3.4 6.10667 3.10667 5.78667 2.76 5.28C2.41333 4.74667 2.2 4.30667 2.12 3.96C2.04 3.64 2 3.34667 2 3.08C2 2.38667 2.22667 1.85333 2.68 1.48C3.13333 1.08 3.70667 0.8 4.4 0.639998C5.09333 0.453333 5.8 0.346666 6.52 0.319998C7.24 0.266665 7.88 0.239999 8.44 0.239999C9.85333 0.239999 11.2667 0.226666 12.68 0.199999C14.0933 0.146665 15.4933 0.119998 16.88 0.119998C17.4933 0.119998 18.0933 0.119998 18.68 0.119998C19.2933 0.119998 19.8933 0.146665 20.48 0.199999C21.1467 0.226666 21.6 0.359999 21.84 0.599999C22.1067 0.839999 22.24 1.13333 22.24 1.48C22.24 1.90667 22.0933 2.4 21.8 2.96C21.5333 3.49333 21.28 3.98667 21.04 4.44C20.9333 4.65333 20.76 4.81333 20.52 4.92C20.28 5 20.1867 4.92 20.24 4.68C20.3733 4.14667 20.44 3.61333 20.44 3.08C20.44 2.6 20.3467 2.17333 20.16 1.8C20 1.4 19.68 1.12 19.2 0.959999C18.7467 0.826666 18.04 0.759999 17.08 0.759999C16.7333 0.759999 16.3733 0.773332 16 0.799999C15.6533 0.799999 15.2933 0.813332 14.92 0.839998C13.8533 0.919999 13.1333 1.2 12.76 1.68C11.88 2.90667 11.0267 4.24 10.2 5.68C9.4 7.09333 8.62667 8.44 7.88 9.72C7.85333 9.77333 7.84 9.84 7.84 9.92C7.84 10.08 7.96 10.16 8.2 10.16C9.13333 10.16 10.1333 10.1733 11.2 10.2C12.2933 10.2267 13.2533 10.2267 14.08 10.2C14.2667 10.1733 14.5467 10.1467 14.92 10.12C15.32 10.0933 15.72 10.04 16.12 9.96C16.5467 9.88 16.8667 9.78667 17.08 9.68C17.2133 9.6 17.2933 9.56 17.32 9.56C17.48 9.56 17.48 9.72 17.32 10.04C17.1867 10.3333 16.9467 10.64 16.6 10.96C16.28 11.2533 15.9067 11.4 15.48 11.4C14.1733 11.4 13.0667 11.3733 12.16 11.32C11.28 11.2667 10.2933 11.24 9.2 11.24C8.93333 11.24 8.65333 11.24 8.36 11.24C8.06667 11.24 7.74667 11.2533 7.4 11.28C7.13333 11.3067 6.94667 11.4133 6.84 11.6C6.57333 12.08 6.33333 12.52 6.12 12.92C5.93333 13.32 5.69333 13.7867 5.4 14.32C5.18667 14.72 4.92 15.24 4.6 15.88C4.30667 16.4933 4.04 17.1333 3.8 17.8C3.56 18.44 3.44 19 3.44 19.48C3.44 20.3067 3.82667 20.88 4.6 21.2C5.37333 21.4933 6.32 21.6533 7.44 21.68C8.98667 21.68 10.5067 21.5333 12 21.24C13.52 20.92 14.9333 20.4 16.24 19.68C17.5733 18.9333 18.7333 17.9333 19.72 16.68C19.7733 16.6267 19.8133 16.6 19.84 16.6C19.92 16.6 19.9733 16.68 20 16.84C20.0267 16.9733 20.0133 17.08 19.96 17.16C19.1333 18.1733 18.3333 19.16 17.56 20.12C16.7867 21.0533 16.0133 21.64 15.24 21.88C14.68 22.04 13.7733 22.1733 12.52 22.28C11.2667 22.4133 9.88 22.48 8.36 22.48ZM26.9016 16.24C26.5816 16.2133 26.2349 16.1867 25.8616 16.16C25.5149 16.1067 25.0749 16.08 24.5416 16.08C23.9282 16.08 23.3549 16.0933 22.8216 16.12C22.3149 16.12 21.7549 16.1467 21.1416 16.2C21.0882 16.2 21.1149 16.1067 21.2216 15.92C21.3282 15.7333 21.4616 15.5467 21.6216 15.36C21.8082 15.1733 21.9416 15.0933 22.0216 15.12C22.3149 15.1733 22.6882 15.2133 23.1416 15.24C23.6216 15.24 24.1149 15.2533 24.6216 15.28C25.3149 15.28 25.9282 15.2667 26.4616 15.24C26.9949 15.2133 27.4349 15.1867 27.7816 15.16C27.8349 15.16 27.8082 15.2533 27.7016 15.44C27.5949 15.6267 27.4616 15.8133 27.3016 16C27.1416 16.16 27.0082 16.24 26.9016 16.24ZM28.3825 22.28C28.3558 22.3067 28.3292 22.32 28.3025 22.32C28.2225 22.32 28.1825 22.2 28.1825 21.96C28.1825 21.8 28.2225 21.64 28.3025 21.48C28.4092 21.2933 28.5958 21.1867 28.8625 21.16C29.6092 21.1067 30.3158 20.8533 30.9825 20.4C31.6492 19.9467 32.2358 19.4133 32.7425 18.8C33.2492 18.16 33.6092 17.56 33.8225 17L37.5025 7.8C38.0092 6.54667 38.5825 5.33333 39.2225 4.16C39.8892 2.98667 40.7292 2.02667 41.7425 1.28C42.7825 0.533333 44.0892 0.16 45.6625 0.16C46.2758 0.16 46.8892 0.24 47.5025 0.399999C48.1425 0.533332 48.6758 0.759999 49.1025 1.08C49.5292 1.4 49.7425 1.85333 49.7425 2.44C49.7425 2.52 49.7425 2.6 49.7425 2.68C49.7425 2.76 49.7292 2.84 49.7025 2.92C49.6225 3.34667 49.3825 3.77333 48.9825 4.2C48.6092 4.62667 48.3158 5.16 48.1025 5.8C48.0758 5.98667 47.9558 6.08 47.7425 6.08C47.5558 6.08 47.5158 5.96 47.6225 5.72C47.8358 5.4 47.9958 5.02667 48.1025 4.6C48.2358 4.14667 48.3025 3.69333 48.3025 3.24C48.3025 2.54667 48.1425 1.93333 47.8225 1.4C47.5025 0.866665 46.9558 0.599999 46.1825 0.599999C45.4892 0.599999 44.7825 0.799999 44.0625 1.2C43.3425 1.6 42.7158 2.29333 42.1825 3.28L34.7825 16.92C34.0892 18.2 33.4492 19.12 32.8625 19.68C32.3025 20.2133 31.8358 20.5467 31.4625 20.68H41.1025C42.3825 20.68 43.5692 20.64 44.6625 20.56C45.7558 20.48 46.4225 20.28 46.6625 19.96C46.9292 19.5867 47.0625 19.1867 47.0625 18.76C47.0625 18.0933 46.7025 17.6 45.9825 17.28C45.9025 17.2267 45.8625 17.1733 45.8625 17.12C45.8625 17.0667 45.8892 17.0133 45.9425 16.96C46.0225 16.9067 46.1158 16.9067 46.2225 16.96C46.4625 17.0667 46.7425 17.3067 47.0625 17.68C47.4092 18.0267 47.7292 18.4133 48.0225 18.84C48.3158 19.24 48.5025 19.56 48.5825 19.8C48.6625 20.04 48.7025 20.28 48.7025 20.52C48.7025 21.6133 47.7558 22.16 45.8625 22.16C44.3692 22.16 42.7692 22.1067 41.0625 22C39.3558 21.8933 37.6625 21.7733 35.9825 21.64C34.3292 21.5067 32.7692 21.4133 31.3025 21.36C30.7425 21.3067 30.1825 21.3867 29.6225 21.6C29.0892 21.7867 28.6758 22.0133 28.3825 22.28ZM59.6175 6.72C59.2442 6.72 58.9775 6.6 58.8175 6.36C58.7108 6.22667 58.6575 6.05333 58.6575 5.84C58.6575 5.41333 58.8575 5.06667 59.2575 4.8C59.5508 4.64 59.8175 4.56 60.0575 4.56C60.4575 4.56 60.7375 4.68 60.8975 4.92C61.0042 5.05333 61.0575 5.22667 61.0575 5.44C61.0575 5.86667 60.8442 6.21333 60.4175 6.48C60.1775 6.64 59.9108 6.72 59.6175 6.72ZM52.6575 22.12C52.3908 22.12 52.1642 22.0667 51.9775 21.96C51.8175 21.8533 51.7375 21.6533 51.7375 21.36C51.7375 20.9867 51.8308 20.5467 52.0175 20.04C52.2308 19.5333 52.4575 19.0267 52.6975 18.52C52.9642 18.0133 53.1642 17.6 53.2975 17.28C53.4842 16.9067 53.7108 16.4267 53.9775 15.84C54.2708 15.2267 54.5375 14.6533 54.7775 14.12C55.0442 13.56 55.2308 13.1733 55.3375 12.96C54.9642 13.36 54.5108 13.8667 53.9775 14.48C53.4708 15.0667 52.9908 15.64 52.5375 16.2C52.0842 16.76 51.7375 17.2 51.4975 17.52C51.4175 17.6267 51.3508 17.68 51.2975 17.68C51.2442 17.68 51.2175 17.6133 51.2175 17.48C51.2175 17.2667 51.2842 17.0667 51.4175 16.88C51.9242 16.24 52.4842 15.52 53.0975 14.72C53.7375 13.92 54.3108 13.1867 54.8175 12.52C55.3242 11.8267 55.6442 11.3733 55.7775 11.16C56.0708 11.1067 56.4975 11.0267 57.0575 10.92C57.6442 10.8133 58.0442 10.6667 58.2575 10.48C58.3375 10.4 58.4175 10.36 58.4975 10.36C58.5508 10.36 58.5775 10.4133 58.5775 10.52C58.6042 10.6 58.5775 10.6933 58.4975 10.8C58.3375 10.9867 58.0575 11.44 57.6575 12.16C57.2575 12.88 56.8308 13.68 56.3775 14.56C55.9508 15.4133 55.5508 16.1867 55.1775 16.88C54.8042 17.6 54.4842 18.2933 54.2175 18.96C53.9508 19.6267 53.8175 20.1067 53.8175 20.4C53.8175 20.7733 54.0042 20.96 54.3775 20.96C54.7242 20.96 55.1642 20.7467 55.6975 20.32C56.2575 19.8933 56.8175 19.3867 57.3775 18.8C57.9375 18.1867 58.4308 17.6267 58.8575 17.12C58.9908 16.96 59.1508 16.7733 59.3375 16.56C59.5508 16.32 59.6842 16.1733 59.7375 16.12C59.7908 16.1733 59.8175 16.2667 59.8175 16.4C59.7908 16.5867 59.7242 16.7733 59.6175 16.96C59.5108 17.12 59.4042 17.2667 59.2975 17.4C58.7375 18.0933 58.1242 18.8133 57.4575 19.56C56.7908 20.28 56.0575 20.8933 55.2575 21.4C54.4575 21.88 53.5908 22.12 52.6575 22.12ZM59.2328 22.6C59.1261 22.6 59.1261 22.48 59.2328 22.24C59.3661 22 59.4861 21.7333 59.5928 21.44C59.7261 21.1467 59.8595 20.8267 59.9928 20.48C60.2595 19.84 60.5528 19.12 60.8728 18.32C61.1928 17.52 61.4995 16.7467 61.7928 16C62.0861 15.2267 62.3395 14.5733 62.5528 14.04C62.7928 13.48 62.9528 13.12 63.0328 12.96C62.6595 13.36 62.2061 13.8667 61.6728 14.48C61.1661 15.0667 60.6861 15.64 60.2328 16.2C59.7795 16.76 59.4328 17.2 59.1928 17.52C59.1128 17.6267 59.0461 17.68 58.9928 17.68C58.9395 17.68 58.9128 17.6133 58.9128 17.48C58.9128 17.2667 58.9795 17.0667 59.1128 16.88C59.6195 16.24 60.1795 15.52 60.7928 14.72C61.4328 13.92 62.0061 13.1867 62.5128 12.52C63.0195 11.8267 63.3395 11.3733 63.4728 11.16C63.7661 11.1067 64.1928 11.0267 64.7528 10.92C65.3395 10.8133 65.7395 10.6667 65.9528 10.48C66.0328 10.4 66.1128 10.36 66.1928 10.36C66.2461 10.36 66.2728 10.4133 66.2728 10.52C66.2995 10.6 66.2728 10.6933 66.1928 10.8C66.0328 10.9867 65.7528 11.4267 65.3528 12.12C64.9795 12.7867 64.5661 13.5333 64.1128 14.36C63.6861 15.1867 63.2861 15.9333 62.9128 16.6C63.2328 16.1733 63.5795 15.76 63.9528 15.36C64.3261 14.96 64.6861 14.5733 65.0328 14.2C65.3528 13.88 65.7928 13.48 66.3528 13C66.9128 12.52 67.4995 12.08 68.1128 11.68C68.7261 11.28 69.2595 11.0533 69.7128 11C69.8195 10.9733 69.9128 10.96 69.9928 10.96C70.0995 10.96 70.1795 10.96 70.2328 10.96C70.8195 10.96 71.1128 11.1733 71.1128 11.6C71.1128 11.92 70.9395 12.3467 70.5928 12.88C70.4061 13.1733 70.1128 13.6667 69.7128 14.36C69.3395 15.0267 68.9528 15.76 68.5528 16.56C68.1795 17.3333 67.8461 18.0667 67.5528 18.76C67.2861 19.4267 67.1528 19.92 67.1528 20.24C67.1528 20.6133 67.3395 20.8 67.7128 20.8C68.1661 20.8 68.6595 20.5733 69.1928 20.12C69.7528 19.6667 70.3528 19.0933 70.9928 18.4C71.6328 17.68 72.2728 16.92 72.9128 16.12C72.9661 16.1733 72.9928 16.2667 72.9928 16.4C72.9928 16.5867 72.9261 16.7733 72.7928 16.96C72.6861 17.12 72.5795 17.2667 72.4728 17.4C72.2061 17.7467 71.8461 18.1867 71.3928 18.72C70.9661 19.2267 70.5261 19.7333 70.0728 20.24C69.6195 20.72 69.2061 21.1067 68.8328 21.4C68.5661 21.5867 68.2195 21.7867 67.7928 22C67.3661 22.2133 66.9395 22.32 66.5128 22.32C66.0328 22.32 65.6995 22.2 65.5128 21.96C65.3261 21.6933 65.2328 21.3733 65.2328 21C65.2328 20.5733 65.3128 20.12 65.4728 19.64C65.6328 19.16 65.8061 18.7067 65.9928 18.28C66.2061 17.8267 66.3661 17.4933 66.4728 17.28C66.9528 16.3467 67.3928 15.4667 67.7928 14.64C68.1928 13.8133 68.4728 13.2267 68.6328 12.88C68.7128 12.72 68.7528 12.5867 68.7528 12.48C68.7528 12.2933 68.6061 12.28 68.3128 12.44C68.0195 12.6 67.6595 12.84 67.2328 13.16C66.8328 13.48 66.4595 13.8 66.1128 14.12C65.7661 14.4133 65.5395 14.6133 65.4328 14.72C64.4461 15.76 63.5795 16.92 62.8328 18.2C62.1128 19.4533 61.4995 20.7467 60.9928 22.08C60.6461 22.1067 60.2995 22.2 59.9528 22.36C59.6061 22.52 59.3661 22.6 59.2328 22.6ZM65.0359 36C64.0226 36 63.0493 35.76 62.1159 35.28C61.1559 34.8267 60.4493 34.12 59.9959 33.16C59.8093 32.8133 59.6893 32.44 59.6359 32.04C59.5826 31.6667 59.5559 31.2933 59.5559 30.92V30.52C59.5559 30.3067 59.5826 30.1067 59.6359 29.92C59.6893 29.7333 59.8359 29.64 60.0759 29.64C60.1293 29.64 60.1559 29.6667 60.1559 29.72C60.1559 29.88 60.1426 30.04 60.1159 30.2C60.0893 30.36 60.0759 30.5333 60.0759 30.72C60.0759 31.9467 60.4759 32.88 61.2759 33.52C62.0493 34.16 63.0226 34.48 64.1959 34.48C64.6759 34.48 65.1693 34.4267 65.6759 34.32C66.1826 34.2133 66.6493 34.0667 67.0759 33.88C68.7826 33.16 70.2626 32.12 71.5159 30.76C72.7959 29.4 73.9026 27.8667 74.8359 26.16C75.7959 24.4533 76.6359 22.7067 77.3559 20.92C78.1026 19.1067 78.7959 17.4 79.4359 15.8C78.8759 16.7067 78.2626 17.52 77.5959 18.24C76.9293 18.9333 76.1826 19.6267 75.3559 20.32C74.8493 20.7467 74.2893 21.1467 73.6759 21.52C73.0893 21.8933 72.4493 22.08 71.7559 22.08C71.4893 22.08 71.3026 22 71.1959 21.84C71.0893 21.6533 71.0359 21.44 71.0359 21.2V20.92C71.1693 19.88 71.5026 18.8 72.0359 17.68C72.5959 16.56 73.2626 15.5067 74.0359 14.52C74.8093 13.5333 75.5959 12.7333 76.3959 12.12C77.3026 11.4267 78.3026 11.08 79.3959 11.08H83.9959C84.1293 11.08 84.1959 11.1333 84.1959 11.24C84.1959 11.4533 84.0759 11.56 83.8359 11.56C83.5426 11.56 83.2626 11.68 82.9959 11.92C82.7293 12.16 82.5293 12.3867 82.3959 12.6C82.1293 13.0267 81.7826 13.68 81.3559 14.56C80.9293 15.44 80.4626 16.4533 79.9559 17.6C79.4493 18.72 78.9426 19.8667 78.4359 21.04C77.9293 22.1867 77.4626 23.2667 77.0359 24.28C76.3959 25.8 75.6626 27.28 74.8359 28.72C74.0359 30.1867 73.0759 31.4933 71.9559 32.64C70.8626 33.8133 69.5559 34.7333 68.0359 35.4C67.1293 35.8 66.1293 36 65.0359 36ZM73.3959 20.72C73.7159 20.72 74.1559 20.4933 74.7159 20.04C75.2759 19.56 75.8893 18.9733 76.5559 18.28C77.2226 17.56 77.8493 16.8133 78.4359 16.04C79.0226 15.24 79.5026 14.52 79.8759 13.88C80.2759 13.2133 80.4759 12.7067 80.4759 12.36C80.4759 12.0667 80.3826 11.8667 80.1959 11.76C80.0359 11.6533 79.8226 11.6 79.5559 11.6C79.1293 11.6 78.6759 11.76 78.1959 12.08C77.7159 12.3733 77.3293 12.6667 77.0359 12.96C76.7159 13.2533 76.3293 13.72 75.8759 14.36C75.4493 14.9733 75.0093 15.6533 74.5559 16.4C74.1293 17.1467 73.7693 17.8667 73.4759 18.56C73.1826 19.2533 73.0359 19.8133 73.0359 20.24C73.0359 20.56 73.1559 20.72 73.3959 20.72ZM83.4219 22.08C82.9952 22.08 82.6085 22 82.2619 21.84C81.9419 21.6533 81.7819 21.2667 81.7819 20.68C81.7819 19.7467 82.0219 18.8133 82.5019 17.88C82.9819 16.92 83.4752 16.08 83.9819 15.36C84.4352 14.7467 84.9419 14.1733 85.5019 13.64C86.0885 13.08 86.7152 12.6 87.3819 12.2C87.8085 11.9333 88.3819 11.6533 89.1019 11.36C89.8485 11.04 90.4752 10.88 90.9819 10.88C91.4085 10.88 91.7819 11 92.1019 11.24C92.4219 11.4533 92.5819 11.8533 92.5819 12.44C92.5819 13.3467 92.3419 14.28 91.8619 15.24C91.4085 16.1733 90.9285 17 90.4219 17.72C90.1819 18.04 89.9419 18.3467 89.7019 18.64C89.4619 18.9067 89.1952 19.1867 88.9019 19.48C89.8885 19.48 90.7952 19.2 91.6219 18.64C92.4485 18.0533 93.1685 17.3467 93.7819 16.52L93.8619 16.44C93.9419 16.44 93.9819 16.52 93.9819 16.68C93.9819 16.8667 93.9285 17.04 93.8219 17.2C93.2885 17.9467 92.6219 18.6133 91.8219 19.2C91.0219 19.76 90.1152 20.04 89.1019 20.04C88.9952 20.04 88.8885 20.04 88.7819 20.04C88.6752 20.04 88.5685 20.0267 88.4619 20C86.9685 21.3867 85.2885 22.08 83.4219 22.08ZM84.4619 21.4C84.8352 21.4 85.2352 21.2667 85.6619 21C86.1152 20.7333 86.4619 20.48 86.7019 20.24C87.1552 19.7867 87.5685 19.3067 87.9419 18.8C88.3152 18.2667 88.6619 17.7333 88.9819 17.2C89.3552 16.56 89.7285 15.8 90.1019 14.92C90.4752 14.04 90.6619 13.2133 90.6619 12.44C90.6619 11.8267 90.4485 11.52 90.0219 11.52C89.6752 11.52 89.2485 11.6667 88.7419 11.96C88.2619 12.2533 87.9019 12.52 87.6619 12.76C86.7552 13.6933 85.9952 14.7067 85.3819 15.8C85.0352 16.4133 84.6619 17.1333 84.2619 17.96C83.8619 18.7867 83.6619 19.5467 83.6619 20.24C83.6619 20.3467 83.6619 20.4533 83.6619 20.56C83.6885 20.64 83.7152 20.7333 83.7419 20.84C83.8485 21.2133 84.0885 21.4 84.4619 21.4Z" fill="#FF5F1F"/>
</svg>
